<?xml version="1.0" encoding="UTF-8" standalone="no"?>
<!-- Created with Inkscape (http://www.inkscape.org/) -->

<svg
   version="1.1"
   id="svg210"
   width="792.77417"
   height="1121.0323"
   viewBox="0 0 792.77417 1121.0323"
   sodipodi:docname="littleaircraftRed.svg"
   inkscape:version="1.1.1 (3bf5ae0d25, 2021-09-20)"
   xmlns:inkscape="http://www.inkscape.org/namespaces/inkscape"
   xmlns:sodipodi="http://sodipodi.sourceforge.net/DTD/sodipodi-0.dtd"
   xmlns="http://www.w3.org/2000/svg"
   xmlns:svg="http://www.w3.org/2000/svg">
  <defs
     id="defs214" />
  <sodipodi:namedview
     id="namedview212"
     pagecolor="#ffffff"
     bordercolor="#666666"
     borderopacity="1.0"
     inkscape:pageshadow="2"
     inkscape:pageopacity="0.0"
     inkscape:pagecheckerboard="0"
     showgrid="false"
     inkscape:zoom="0.68508282"
     inkscape:cx="396.30245"
     inkscape:cy="560.51617"
     inkscape:window-width="1612"
     inkscape:window-height="1025"
     inkscape:window-x="68"
     inkscape:window-y="0"
     inkscape:window-maximized="1"
     inkscape:current-layer="g216" />
  <g
     inkscape:groupmode="layer"
     inkscape:label="Image"
     id="g216">
    <path
       style="fill:#ff0000;fill-opacity:1;stroke-width:0.387097"
       d="m 181.87286,1116.6455 -10.16079,-6.653 0.007,-28.0646 0.007,-28.0645 49.30449,-53.483 c 48.45909,-52.56597 49.31822,-53.52508 50.10545,-55.93549 5.81146,-17.79418 26.081,-82.55075 30.43951,-97.24735 4.87141,-16.42606 4.92825,-17.52108 0.97371,-18.75619 -3.7157,-1.16052 -17.47906,-1.77511 -48.96774,-2.18656 -72.54034,-0.9478 -122.61454,-2.17726 -198.193541,-4.86615 -11.92258,-0.42418 -28.33014,-0.88111 -36.46125,-1.01543 l -14.7832797,-0.24418 -0.15083,-34.29411 c -0.10073,-22.90297 -0.28948,-34.78471 -0.56823,-35.77115 -0.22957,-0.81236 -0.85765,-2.11881 -1.39572,-2.90322 -1.72267999,-2.51133 -1.70756999,-3.29846 0.0973,-5.06756 0.87183,-0.85456 1.61449,-1.60421 1.65035,-1.66588 0.0359,-0.0617 0.16651,-3.23098 0.29032,-7.04295 l 0.22511,-6.93085 80.7096697,-50.268 c 80.129891,-49.90692 80.711441,-50.26034 80.954201,-49.19819 0.13449,0.58839 0.26615,2.02789 0.29257,3.19885 0.0586,2.59777 0.6885,6.60624 1.10328,7.02101 0.16715,0.16715 2.91483,-1.10164 6.10596,-2.81957 25.72645,-13.84963 107.87337,-58.78084 108.47746,-59.333 0.31122,-0.28448 0.7603,-3.72604 1.26818,-9.71895 1.58996,-18.76119 3.04839,-29.37829 6.19314,-45.08497 5.11481,-25.54626 12.98831,-51.55135 23.02985,-76.06452 6.99814,-17.08367 20.56331,-42.85913 29.98069,-56.96691 l 4.1769,-6.25724 1.6098,-49.4847 c 3.53636,-108.70644 4.52385,-128.10521 8.54876,-167.93632 9.06897,-89.747748 18.06972,-136.19909 29.71323,-153.344925 3.97721,-5.8567309 8.71102,-8.3072259 13.40921,-6.9414219 4.38128,1.273668 7.93096,5.171864 11.69226,12.8402449 10.08472,20.560208 18.43138,67.085404 26.45191,147.446102 4.11871,41.26703 4.95972,57.79279 8.56641,168.33046 l 1.60224,49.10465 4.17944,6.25019 c 8.62723,12.90167 21.22316,36.49836 28.33885,53.0889 12.49754,29.13844 22.66901,64.45448 27.37378,95.04376 1.6685,10.84808 2.21179,15.44144 3.31738,28.04655 0.63527,7.24282 1.15293,11.37279 1.46056,11.65231 0.61811,0.56164 89.60357,49.20357 110.70193,60.51275 l 3.7738,2.02286 0.38714,-1.01822 c 0.2129,-0.56002 0.5023,-2.79279 0.64305,-4.96169 0.14078,-2.16891 0.35914,-4.33386 0.4853,-4.811 0.2112,-0.79893 6.60008,3.10003 80.74444,49.27568 l 80.515,50.14324 0.276,5.69207 c 0.3615,7.45997 0.5785,8.85909 1.4706,9.48395 1.5744,1.10276 1.8992,4.59673 0.5657,6.08477 -1.388,1.5487 -1.4726,3.45557 -1.7008,38.31685 l -0.2244,34.25807 -13.7419,0.25564 c -7.5581,0.14059 -23.9323,0.61893 -36.3871,1.06297 -62.7998,2.23881 -107.50412,3.4397 -159.48386,4.28411 -13.51936,0.21964 -35.55484,0.57809 -48.96774,0.79661 -32.45149,0.52862 -39.34827,1.01055 -41.54698,2.90326 -1.98298,1.70698 -1.61652,3.42744 6.18104,29.01999 4.23368,13.89542 23.35514,74.63973 26.91244,85.49435 l 0.99716,3.04274 49.30146,53.47346 49.30149,53.4733 0.005,28.0645 0.005,28.0646 -10.4335,6.6774 c -5.7384,3.6726 -10.64098,6.6774 -10.89457,6.6774 -0.25358,0 -11.10429,-5.2106 -24.11272,-11.579 -77.17993,-37.7847 -89.46042,-43.8193 -89.69303,-44.0745 -0.14133,-0.1551 -0.47078,-8.4691 -0.73207,-18.4755 -0.26126,-10.0065 -0.59435,-19.1516 -0.74021,-20.3226 -0.14582,-1.171 -0.37386,6.9009 -0.50671,17.9374 -0.13285,11.0366 -0.30999,20.1349 -0.3936,20.2185 -0.28773,0.2878 -46.33769,3.415 -46.58884,3.1638 -0.13827,-0.1382 -0.65439,-7.445 -1.14697,-16.2372 -0.49254,-8.7921 -0.90712,-16.0293 -0.92125,-16.0825 -0.0139,-0.053 -17.78276,-0.097 -39.48584,-0.097 h -39.46016 l -0.20877,1.6452 c -0.11483,0.9048 -0.54503,8.1469 -0.95601,16.0936 -0.41098,7.9466 -0.84976,14.5509 -0.97508,14.6762 -0.24468,0.2447 -46.33159,-2.9035 -46.61215,-3.1841 -0.0923,-0.092 -0.25849,-9.1492 -0.36922,-20.1263 -0.11073,-10.9772 -0.29677,-19.8631 -0.41342,-19.7464 -0.11665,0.1167 -0.48298,9.2999 -0.81406,20.4073 l -0.60195,20.1952 -18.58065,9.1179 c -64.92877,31.8616 -95.06992,46.4731 -95.80645,46.4439 -0.31935,-0.013 -5.153,-3.0168 -10.74143,-6.6759 z"
       id="path7" />
  </g>
</svg>
